<svg xmlns="http://www.w3.org/2000/svg" xmlns:xlink="http://www.w3.org/1999/xlink" version="1.1" width="500" height="500" style="shape-rendering:geometricPrecision; text-rendering:geometricPrecision; image-rendering:optimizeQuality; fill-rule:evenodd; clip-rule:evenodd">
<g><path style="opacity:0.64" fill="#8fa8e5" d="M 128.5,41.5 C 148.337,40.1721 168.337,40.1721 188.5,41.5C 188.376,42.1067 188.043,42.44 187.5,42.5C 184.375,41.5206 181.042,41.1872 177.5,41.5C 161.167,41.5 144.833,41.5 128.5,41.5 Z"/></g>
<g><path style="opacity:1" fill="#2763eb" d="M 128.5,41.5 C 144.833,41.5 161.167,41.5 177.5,41.5C 164.444,65.2741 151.111,88.9408 137.5,112.5C 135.955,113.452 134.288,113.785 132.5,113.5C 97.4464,116.386 80.613,135.386 82,170.5C 89.0872,199.405 107.587,213.405 137.5,212.5C 138.167,212.5 138.833,212.5 139.5,212.5C 129.252,238.831 118.585,264.998 107.5,291C 83.0614,306.234 75.8947,327.401 86,354.5C 96.5396,375.692 113.706,385.359 137.5,383.5C 138.833,383.5 140.167,383.5 141.5,383.5C 242.333,384.333 343.333,384.833 444.5,385C 431.167,408.333 417.833,431.667 404.5,455C 391.993,455.169 379.66,455.669 367.5,456.5C 320.163,456.369 272.83,456.702 225.5,457.5C 187.821,457.126 150.155,456.293 112.5,455C 74.6318,450.098 46.1318,431.264 27,398.5C 3.95786,358.794 2.62452,318.461 23,277.5C 29.182,267.99 35.3487,258.49 41.5,249C 41,247.5 40.5,246 40,244.5C 6.03092,204.682 -0.635748,160.682 20,112.5C 22.7697,105.944 26.2697,99.9445 30.5,94.5C 31.9063,94.0269 32.573,93.0269 32.5,91.5C 36.4413,85.2264 41.1079,79.5597 46.5,74.5C 48.7488,73.9202 50.4154,72.5869 51.5,70.5C 62.9457,59.0938 76.6124,51.4271 92.5,47.5C 95.1522,47.5905 97.4855,46.9238 99.5,45.5C 108.922,42.678 118.589,41.3447 128.5,41.5 Z"/></g>
<g><path style="opacity:0.999" fill="#3452a8" d="M 177.5,41.5 C 181.042,41.1872 184.375,41.5206 187.5,42.5C 174.179,65.806 160.845,89.1393 147.5,112.5C 142.623,114.042 137.623,114.709 132.5,114.5C 132.5,114.167 132.5,113.833 132.5,113.5C 134.288,113.785 135.955,113.452 137.5,112.5C 151.111,88.9408 164.444,65.2741 177.5,41.5 Z"/></g>
<g><path style="opacity:1" fill="#2663eb" d="M 198.5,41.5 C 282.211,41.0109 365.878,41.5109 449.5,43C 399.167,130 348.833,217 298.5,304C 302.152,304.499 305.818,304.665 309.5,304.5C 369.5,304.5 429.5,304.5 489.5,304.5C 475.833,328.5 462.167,352.5 448.5,376.5C 445.5,376.5 442.5,376.5 439.5,376.5C 351.167,375.833 262.833,375.167 174.5,374.5C 223.998,287.499 273.998,200.832 324.5,114.5C 325.043,114.44 325.376,114.107 325.5,113.5C 269.827,113.165 214.494,112.165 159.5,110.5C 172.235,87.3651 185.235,64.3651 198.5,41.5 Z"/></g>
<g><path style="opacity:1" fill="#405aad" d="M 198.5,41.5 C 284.069,40.1685 369.736,40.1685 455.5,41.5C 456.9,42.1001 457.9,43.1001 458.5,44.5C 408.806,131.184 359.139,217.85 309.5,304.5C 305.818,304.665 302.152,304.499 298.5,304C 348.833,217 399.167,130 449.5,43C 365.878,41.5109 282.211,41.0109 198.5,41.5 Z"/></g>
<g><path style="opacity:0.267" fill="#a8b6dc" d="M 455.5,41.5 C 456.833,41.5 458.167,41.5 459.5,41.5C 459.737,42.791 459.404,43.791 458.5,44.5C 457.9,43.1001 456.9,42.1001 455.5,41.5 Z"/></g>
<g><path style="opacity:0.976" fill="#829bf3" d="M 99.5,45.5 C 97.4855,46.9238 95.1522,47.5905 92.5,47.5C 94.5145,46.0762 96.8478,45.4095 99.5,45.5 Z"/></g>
<g><path style="opacity:0.925" fill="#8198f3" d="M 51.5,70.5 C 50.4154,72.5869 48.7488,73.9202 46.5,74.5C 47.5846,72.4131 49.2512,71.0798 51.5,70.5 Z"/></g>
<g><path style="opacity:0.608" fill="#9db2f6" d="M 32.5,91.5 C 32.573,93.0269 31.9063,94.0269 30.5,94.5C 30.427,92.9731 31.0937,91.9731 32.5,91.5 Z"/></g>
<g><path style="opacity:0.757" fill="#5e86df" d="M 159.5,110.5 C 214.494,112.165 269.827,113.165 325.5,113.5C 325.376,114.107 325.043,114.44 324.5,114.5C 269.001,113.667 213.335,113.167 157.5,113C 158.066,112.005 158.733,111.172 159.5,110.5 Z"/></g>
<g><path style="opacity:0.999" fill="#3653a9" d="M 132.5,113.5 C 132.5,113.833 132.5,114.167 132.5,114.5C 98.9864,124.525 86.4864,146.525 95,180.5C 103.33,199.005 117.496,209.672 137.5,212.5C 107.587,213.405 89.0872,199.405 82,170.5C 80.613,135.386 97.4464,116.386 132.5,113.5 Z"/></g>
<g><path style="opacity:1" fill="#2863ea" d="M 240.5,212.5 C 227.061,236.445 213.394,260.278 199.5,284C 178.663,284.168 157.996,284.668 137.5,285.5C 136.5,285.5 135.5,285.5 134.5,285.5C 132.901,285.768 131.568,285.434 130.5,284.5C 139.84,260.489 149.173,236.489 158.5,212.5C 185.833,212.5 213.167,212.5 240.5,212.5 Z"/></g>
<g><path style="opacity:0.999" fill="#3d58ad" d="M 240.5,212.5 C 243.898,212.18 247.232,212.513 250.5,213.5C 236.96,237.415 223.293,261.248 209.5,285C 185.502,285.5 161.502,285.667 137.5,285.5C 157.996,284.668 178.663,284.168 199.5,284C 213.394,260.278 227.061,236.445 240.5,212.5 Z"/></g>
<g><path style="opacity:0.999" fill="#3955aa" d="M 139.5,212.5 C 141.716,212.275 143.383,213.108 144.5,215C 133.809,240.736 123.309,266.57 113,292.5C 86.7149,316.59 84.7149,342.59 107,370.5C 115.904,378.042 126.071,382.375 137.5,383.5C 113.706,385.359 96.5396,375.692 86,354.5C 75.8947,327.401 83.0614,306.234 107.5,291C 118.585,264.998 129.252,238.831 139.5,212.5 Z"/></g>
<g><path style="opacity:0.345" fill="#b7c4e1" d="M 130.5,284.5 C 131.568,285.434 132.901,285.768 134.5,285.5C 132.965,286.788 131.299,286.788 129.5,285.5C 129.624,284.893 129.957,284.56 130.5,284.5 Z"/></g>
<g><path style="opacity:0.999" fill="#3452a8" d="M 489.5,304.5 C 492.833,304.5 496.167,304.5 499.5,304.5C 499.5,305.167 499.5,305.833 499.5,306.5C 485.941,329.273 472.608,352.273 459.5,375.5C 455.893,376.489 452.226,376.823 448.5,376.5C 462.167,352.5 475.833,328.5 489.5,304.5 Z"/></g>
<g><path style="opacity:0.903" fill="#3368df" d="M 174.5,374.5 C 262.833,375.167 351.167,375.833 439.5,376.5C 350.831,376.833 262.164,376.5 173.5,375.5C 173.624,374.893 173.957,374.56 174.5,374.5 Z"/></g>
<g><path style="opacity:0.999" fill="#4e67b8" d="M 141.5,383.5 C 246.167,383.333 350.834,383.5 455.5,384C 441.707,407.752 428.04,431.585 414.5,455.5C 398.848,456.499 383.181,456.833 367.5,456.5C 379.66,455.669 391.993,455.169 404.5,455C 417.833,431.667 431.167,408.333 444.5,385C 343.333,384.833 242.333,384.333 141.5,383.5 Z"/></g>
</svg>